<?xml version="1.0" encoding="UTF-8" standalone="no"?>
<svg xmlns="http://www.w3.org/2000/svg" xmlns:xlink="http://www.w3.org/1999/xlink" width="28.000mm" height="27.794mm" viewBox="1.999998 -27.896824 28.000002 27.793646">
    <path transform="matrix(0.043569,0,0,-0.043569,-6.090839,7.869953)" style="stroke:#c08000;stroke-width:1.147604mm;fill:none" d="M534.5,816.967285C524.599976,814.834778,508.903351,811.412537,499.618561,809.362305L482.737122,805.634521L458.118561,806.819153C444.578369,807.470703,426.75,808.289246,418.5,808.638123L403.5,809.272461L381.5,790.970642C369.399994,780.904663,357.25,770.675232,354.5,768.238586C350.858154,765.01178,345.238647,761.946716,333.812134,756.954712C325.183807,753.185181,308.971893,745.661072,297.785645,740.234375L277.447021,730.367737L266.792572,705.433838C260.932617,691.720215,254.904785,677.389038,253.397369,673.586731C251.417023,668.591553,248.951462,664.846008,244.510788,660.086731C241.1306,656.46405,232.056778,646.269775,224.346756,637.432922L210.328506,621.365784L209.664261,604.523193C209.29892,595.259766,209,582.665405,209,576.535706L209,565.390808L202.558914,547.775452C199.016327,538.087036,193.774185,523.490723,190.909729,515.339233L185.701614,500.518402L187.467331,495.509186C188.438492,492.75415,193.930344,479.024994,199.671478,465L210.109894,439.5L211.060211,425C211.582886,417.024994,212.700546,400.905823,213.543915,389.179626L215.077301,367.859253L221.288651,362.092438C224.704895,358.920685,234.925003,349.654053,244,341.499908C253.074997,333.345734,266.799988,320.96106,274.5,313.978394C282.200012,306.995728,291.931152,298.181549,296.124786,294.391327C300.318451,290.601105,310.983429,279.399994,319.824799,269.5C328.666138,259.600006,339.409973,247.745224,343.699982,243.156052L351.5,234.812103L387,225.998138L422.5,217.184189L462.90564,200.092087C485.128754,190.691437,503.845398,183,504.498199,183C505.835297,183,533.700562,193.121323,553.718567,200.878006L566.937134,206L597.470276,206L628.003357,206L644.751709,221.400192C653.963257,229.8703,664.875,240.06311,669,244.050888C676.354126,251.16037,677.01532,251.537842,703,263.461914C717.575012,270.150238,732.645813,277.169922,736.490723,279.061249L743.481445,282.5L746.87207,291C748.736938,295.674988,753.98114,309.109711,758.525818,320.854919L766.78894,342.209869L783.14447,359.748108C792.140015,369.394165,800.596619,378.637756,801.936951,380.289429C804.333252,383.242462,804.393921,383.802094,805.580383,413.89624L806.786926,444.5L815.355469,468.641968C820.068176,481.920044,824.922119,496.176544,826.14209,500.323059L828.360107,507.862213L817.930054,535.181091L807.5,562.5L806.899292,595.842407L806.298584,629.184875L783.906189,651.842407C728.63031,707.772827,733.869263,701.853577,712.961365,732C702.471497,747.125,693.126404,760.216919,692.194458,761.093201C691.262512,761.969421,687.125,763.654541,683,764.837891C643.315491,776.22229,626.731506,781.897095,616.773804,787.499573C571.073181,813.211975,556.63208,820.989502,554.715393,820.922241C553.496948,820.879456,544.400024,819.099731,534.5,816.967285z"/>
    <path transform="matrix(0.043569,0,0,-0.043569,-6.090839,7.869953)" style="stroke:#c08000;stroke-width:1.147604mm;fill:none" d="M581.891724,801.812988C595.976257,794.010132,607.919617,787.268005,608.432556,786.830444C608.945435,786.392883,607.820435,786.481384,605.932556,787.027039C590.975037,791.35022,543.64447,799.687744,515.658264,802.929321C507.321198,803.89502,501.174988,804.946472,502,805.26593C504.744385,806.328735,550.452026,815.777344,553.391724,815.889587C555.37561,815.965332,564.322815,811.546143,581.891724,801.812988z"/>
    <path transform="matrix(0.043569,0,0,-0.043569,-6.090839,7.869953)" style="stroke:#c08000;stroke-width:1.147604mm;fill:none" d="M442,802.915222C454.375,802.303467,464.596924,801.71283,464.715393,801.602722C464.833862,801.492615,455.383881,798.790405,443.715393,795.597717C432.046936,792.40509,409.783386,785.564514,394.240845,780.396484C378.698303,775.228394,365.723541,771,365.408051,771C364.891785,771,396.456573,797.407104,403.305023,802.704651C405.706726,804.562439,407.072693,804.813538,412.805023,804.450989C416.487274,804.21814,429.625,803.527039,442,802.915222z"/>
    <path transform="matrix(0.043569,0,0,-0.043569,-6.090839,7.869953)" style="stroke:#c08000;stroke-width:1.147604mm;fill:none" d="M551,793.563965C597.820862,786.133789,653.855591,761.729126,692,732.154602C705.790649,721.46228,729.394714,697.158264,740.710144,682C774.079102,637.298584,789.809326,600.961426,798.448669,548.622314C803.552795,517.700684,803.877258,499.862366,799.886414,469.576355C793.991272,424.838287,783.456055,393.470947,762.32135,357.731201C742.663574,324.489014,721.8573,300.43454,692.5,277.009583C641.801697,236.556076,590.65509,216.776367,524.168396,211.911438C485.63446,209.091858,436.05484,217.441681,398.36908,233.09761C354.786285,251.203369,311.56842,283.078339,282.185516,318.787811C266.862457,337.410126,248.831207,365.373657,240.135834,384C225.658813,415.011169,213.033524,470.996094,213.008209,504.293182C212.98555,534.093567,222.779816,585.013062,234.110123,614C247.021729,647.032532,280.366852,694.667419,308,719.554688C332.735413,741.832214,369.982697,765.101563,399.739258,776.866638C424.872955,786.803894,444.292847,791.380127,476.5,794.955017C489.648651,796.41449,538.823608,795.496277,551,793.563965z"/>
    <path transform="matrix(0.043569,0,0,-0.043569,-6.090839,7.869953)" style="stroke:#c08000;stroke-width:1.147604mm;fill:none" d="M668.5,764.482483C678.950012,761.321411,688.241394,758.007141,689.147522,757.117554C690.590881,755.700378,713.311218,723.757263,715.459473,720.124817C715.906799,719.368469,710.907898,723.011902,704.350769,728.221313C687.962036,741.241699,671.568909,753.30835,658.5,761.971069C652.450012,765.981323,647.049988,769.7146,646.5,770.267273C645.247681,771.525635,645.009888,771.588135,668.5,764.482483z"/>
    <path transform="matrix(0.043569,0,0,-0.043569,-6.090839,7.869953)" style="stroke:#c08000;stroke-width:1.147604mm;fill:none" d="M321.993011,739.366943C314.021851,731.868713,297.037506,715.222839,284.25,702.376099C271.462494,689.529358,261,679.270081,261,679.577698C261,680.364258,277.857086,719.734436,280.047699,724.064087C281.568726,727.070374,283.466736,728.391785,292.175476,732.507813C327.34201,749.128601,335.552338,752.964844,335.993011,752.981445C336.26416,752.991638,329.964172,746.865112,321.993011,739.366943z"/>
    <path transform="matrix(0.043569,0,0,-0.043569,-6.090839,7.869953)" style="stroke:#c08000;stroke-width:1.147604mm;fill:none" d="M802.377258,601.379944C802.758423,587.276306,802.901672,575.568298,802.695557,575.362244C802.489502,575.156128,801.060059,578.252808,799.519043,582.243774C793.87085,596.871826,776.587524,634.996155,767.442444,653L758.045288,671.5L779.864807,649.261475L801.684326,627.022949L802.377258,601.379944z"/>
    <path transform="matrix(0.043569,0,0,-0.043569,-6.090839,7.869953)" style="stroke:#c08000;stroke-width:1.147604mm;fill:none" d="M237.374435,634.75C233.244583,624.712524,226.476517,608.174988,222.33429,598C218.192062,587.825012,214.509796,579.183533,214.151489,578.796692C213.793167,578.409851,213.725006,587.233521,214,598.404785L214.5,618.716187L222.454193,628.108093C232.073273,639.46582,244.085861,653,244.547577,653C244.732208,653,241.504288,644.787476,237.374435,634.75z"/>
    <path transform="matrix(0.043569,0,0,-0.043569,-6.090839,7.869953)" style="stroke:#c08000;stroke-width:1.147604mm;fill:none" d="M208.250931,531.25C208.032593,520.9375,208.274918,499.225006,208.789429,483C209.30394,466.774994,209.638199,453.388916,209.532257,453.253143C209.17366,452.79361,190.975143,498.489716,190.987625,499.818298C190.997864,500.908539,195.728882,514.75116,206.685791,545.75C207.512009,548.087524,208.291473,550,208.417953,550C208.544418,550,208.469254,541.5625,208.250931,531.25z"/>
    <path transform="matrix(0.043569,0,0,-0.043569,-6.090839,7.869953)" style="stroke:#c08000;stroke-width:1.147604mm;fill:none" d="M815.911743,527.601624C819.810303,517.207581,823,507.922791,823,506.968842C823,505.048309,809.352356,464.384247,807.907593,462C807.352356,461.083649,807.170044,468.671143,807.439148,481.5C807.681396,493.049988,807.906677,512.587524,807.939819,524.916687C807.9729,537.24585,808.185303,547.145813,808.411743,546.916687C808.638245,546.6875,812.013245,537.995728,815.911743,527.601624z"/>
    <path transform="matrix(0.043569,0,0,-0.043569,-6.090839,7.869953)" style="stroke:#c08000;stroke-width:1.147604mm;fill:none" d="M800.765259,407.5L799.7453,384.5L787.690674,371.5C781.060669,364.350006,774.640076,357.432343,773.422729,356.127411C771.812866,354.401764,773.736023,360.400635,780.475525,378.127411C791.126526,406.142395,801.143066,431.201263,801.523987,430.785309C801.667725,430.628387,801.326294,420.149994,800.765259,407.5z"/>
    <path transform="matrix(0.043569,0,0,-0.043569,-6.090839,7.869953)" style="stroke:#c08000;stroke-width:1.147604mm;fill:none" d="M234.103851,386C242.732834,367.024994,251.427475,347.959167,253.425232,343.63147L257.057556,335.762909L252.217834,340.13147C249.555984,342.534149,241.064621,350.247559,233.348129,357.272369L219.318161,370.044739L218.148392,386.772369C216.022964,417.16626,215.792435,425.827271,217.184143,423C217.860992,421.625,225.474854,404.975006,234.103851,386z"/>
    <path transform="matrix(0.043569,0,0,-0.043569,-6.090839,7.869953)" style="stroke:#c08000;stroke-width:1.147604mm;fill:none" d="M748.972351,309.093079L739.843262,285.954254L735.038025,283.519257C728.617493,280.265747,688.931763,262,688.283447,262C688.002502,262,703.461304,277.915192,722.636292,297.367096C741.81134,316.81897,757.635315,332.621155,757.80072,332.483032C757.966125,332.344879,753.993347,321.819397,748.972351,309.093079z"/>
    <path transform="matrix(0.043569,0,0,-0.043569,-6.090839,7.869953)" style="stroke:#c08000;stroke-width:1.147604mm;fill:none" d="M335.056824,262.875702C343.776123,256.617798,363.927887,244.594757,380.149536,235.972244C387.492279,232.069244,392.600006,229.100708,391.5,229.375488C390.399994,229.650253,381.456726,231.957199,371.626038,234.502029L353.752106,239.128998L345.626038,247.813248C341.156708,252.589584,334.799988,259.379486,331.5,262.901886C324.986786,269.854095,325.337189,269.851501,335.056824,262.875702z"/>
    <path transform="matrix(0.043569,0,0,-0.043569,-6.090839,7.869953)" style="stroke:#c08000;stroke-width:1.147604mm;fill:none" d="M664,245.536865C664,245.282135,655.643066,237.456985,645.428955,228.147659C632.684082,216.531677,625.899841,211.029968,623.803955,210.610794C622.124268,210.274857,610.793762,210.018478,598.625,210.041061L576.5,210.082138L582.5,212.712051C587.242065,214.790573,662.764099,245.669693,663.75,245.933182C663.887512,245.96994,664,245.79158,664,245.536865z"/>
    <path transform="matrix(0.043569,0,0,-0.043569,-6.090839,7.869953)" style="stroke:#c08000;stroke-width:1.147604mm;fill:none" d="M460.5,210.087631C480.023712,207.84819,497.711578,206.767303,524.977905,206.147415L553.455811,205.5L535.477905,198.896744C525.590027,195.264954,514.518616,191.239105,510.874695,189.950409L504.249359,187.607315L479.374695,197.951324C455.688385,207.801132,445.126251,212.623703,449.5,211.591812C450.600006,211.332291,455.549988,210.655411,460.5,210.087631z"/>
    <path transform="matrix(0.047417,0,0,-0.047417,-8.042107,9.801712)" style="stroke:#c08000;stroke-width:1.054464mm;fill:none" d="M463,726.045288L463,716.090637L459.25,715.542542C441.788727,712.99054,433.052673,709.026917,424.368195,699.716309C404.648499,678.574829,405.167114,647.877136,425.590088,627.391541C432.998138,619.960754,441.602142,615.506104,452.811646,613.297729C460.349976,611.812561,461.652161,611.812988,469.21524,613.302979C475.58252,614.557434,477.616333,614.64917,478.256683,613.710754C478.71109,613.044861,478.951721,605.75,478.791443,597.5L478.5,582.5L485.628815,582.208618L492.757599,581.917297L493.407532,577.852844C493.93457,574.557068,495.790588,571.869873,503.221405,563.644165C508.261566,558.06488,512.926514,553.166504,513.587952,552.758911C514.358948,552.283813,517.915649,555.579346,523.497925,561.941284C528.286926,567.399231,532.834045,572.106079,533.6026,572.401001C534.514648,572.750977,535,574.511108,535,577.468628L535,582L542.5,582L550,582L550,588L550,594L589.5,594C611.224976,594,629,594.190857,629,594.424072C629,594.990173,591.883606,662.69281,578.84198,685.915405C573.15387,696.043884,568.101135,704.368896,567.613708,704.415405C567.126221,704.461914,563.301208,698.340637,559.113708,690.812561L551.5,677.125122L551.235107,706.562561L550.970215,736L506.985107,736L463,736L463,726.045288z"/>
    <path transform="matrix(0.047417,0,0,-0.047417,-8.042107,9.801712)" style="stroke:#c08000;stroke-width:1.054464mm;fill:none" d="M545,698.460144C545,667.784668,544.884277,665.69342,542.979675,661.960144L540.959351,658L526.979675,658L513,658L513,664.789917C513,688.060303,496.509949,709.161804,474.470642,714.093994L469,715.318237L469,723.159119L469,731L507,731L545,731L545,698.460144z"/>
    <path transform="matrix(0.047417,0,0,-0.047417,-8.042107,9.801712)" style="stroke:#c08000;stroke-width:1.054464mm;fill:none" d="M463,681.5L463,653L484.5,653C499.55246,653,506,652.66803,506,651.892944C506,651.284119,504.573395,647.79657,502.829742,644.142944C499.718842,637.624329,491.077362,627.717346,486.247803,625.132629L484,623.929626L484,635.348267C484,646.705078,483.986603,646.769409,481.523499,647.240234C480.161438,647.50061,478.811432,647.478088,478.523499,647.190186C478.235565,646.902222,478,640.880554,478,633.808594L478,620.9505L475.25,619.7547C473.657654,619.062256,467.650085,618.546509,460.978973,618.529419C449.920959,618.50116,449.186584,618.633606,442.706146,621.823914C420.456268,632.777466,410.174286,656.754211,417.987915,679.464844C423.75174,696.217773,441.37851,709.724487,457.75,709.933105L463,710L463,681.5z"/>
    <path transform="matrix(0.047417,0,0,-0.047417,-8.042107,9.801712)" style="stroke:#c08000;stroke-width:1.054464mm;fill:none" d="M476.712494,707.857971C484.237793,705.072815,492.121429,699.835449,496.602295,694.644592C503.96048,686.120544,508.559052,673.154175,507.825226,663L507.5,658.5L488.25,658.228394L469,657.956787L469,683.978394C469,699.983337,469.370483,710,469.962494,710C470.491852,710,473.529358,709.036072,476.712494,707.857971z"/>
    <path transform="matrix(0.047417,0,0,-0.047417,-8.042107,9.801712)" style="stroke:#c08000;stroke-width:1.054464mm;fill:none" d="M590.228455,654.5C602.027405,633.049988,613.584351,612.012512,615.910583,607.75L620.140076,600L585.070068,600L550,600L550,631.592712L550,663.185364L558.683289,679.109375C563.459106,687.867615,567.683655,694.688416,568.071228,694.266724C568.458801,693.845032,578.429565,675.950012,590.228455,654.5z"/>
    <path transform="matrix(0.047417,0,0,-0.047417,-8.042107,9.801712)" style="stroke:#c08000;stroke-width:1.054464mm;fill:none" d="M536.55011,651.25C536.184998,650.287476,529.386841,637.519775,521.443115,622.877319C513.49939,608.234863,507,595.747375,507,595.127319C507,594.330444,512.569397,594,526,594L545,594L545,591.158142L545,588.316223L526.25,587.66095C515.9375,587.300537,502.212494,587.004395,495.75,587.002808L484,587L484,602.252625L484,617.505249L490.75,622.039856C500.807404,628.796326,506.221619,636.547363,511.502991,651.75C511.819519,652.661133,515.363159,653,524.575623,653C536.198364,653,537.160645,652.859375,536.55011,651.25z"/>
    <path transform="matrix(0.047417,0,0,-0.047417,-8.042107,9.801712)" style="stroke:#c08000;stroke-width:1.054464mm;fill:none" d="M545,626.5L545,600L529.877563,600C517.920349,600,514.961487,600.261658,515.74115,601.25C516.283508,601.9375,521.790283,611.950012,527.978394,623.5C541.056763,647.9104,543.91449,653,544.542175,653C544.793945,653,545,641.075012,545,626.5z"/>
    <path transform="matrix(0.047417,0,0,-0.047417,-8.042107,9.801712)" style="stroke:#c08000;stroke-width:1.054464mm;fill:none" d="M530,579.474609L530,576.949219L514.25,577.224609C501.073822,577.455017,498.48941,577.745117,498.43512,579C498.399445,579.825012,498.538513,580.837524,498.744141,581.25C498.949799,581.662476,506.066467,582,514.559021,582L530,582L530,579.474609z"/>
    <path transform="matrix(0.047417,0,0,-0.047417,-8.042107,9.801712)" style="stroke:#c08000;stroke-width:1.054464mm;fill:none" d="M523.968201,571.25C523.950684,570.837524,521.700684,568.025024,518.968201,565L514,559.5L509.03183,565C506.299347,568.025024,504.049347,570.837524,504.03183,571.25C504.014313,571.662476,508.5,572,514,572C519.5,572,523.985657,571.662476,523.968201,571.25z"/>
    <path transform="matrix(0.047417,0,0,-0.047417,-8.042107,9.801712)" style="stroke:#a0a000;stroke-width:1.054464mm;fill:none" d="M416.7742,511.499603L416.5,474.999176L424.25,474.999603L432,475L432,511.5L432,548L424.5242,548L417.04837,548L416.7742,511.499603z"/>
    <path transform="matrix(0.047417,0,0,-0.047417,-8.042107,9.801712)" style="stroke:#c08000;stroke-width:1.054464mm;fill:none" d="M512.411926,545.631042C511.661346,543.67511,512.68396,542,514.62854,542C515.610352,542,516.027222,542.760193,515.81958,544.171692C515.431519,546.808716,513.226257,547.753113,512.411926,545.631042z"/>
    <path transform="matrix(0.047417,0,0,-0.047417,-8.042107,9.801712)" style="stroke:#a0a000;stroke-width:1.054464mm;fill:none" d="M299,520.450317C299,492.225433,298.651306,490.340851,292.995361,487.998077C288.893829,486.299164,283.269501,487.944244,279.300629,492.003723L276.376648,494.994446L271.574829,489.432495L266.77298,483.870544L268.937653,481.566345C273.142456,477.090576,280.848907,473.743774,288.153717,473.2211C296.784637,472.603577,302.527954,474.628235,307.379974,479.99884C313.285858,486.535919,314,490.870728,314,520.181519L314,546L306.5,546L299,546L299,520.450317z"/>
    <path transform="matrix(0.047417,0,0,-0.047417,-8.042107,9.801712)" style="stroke:#c08000;stroke-width:1.054464mm;fill:none" d="M602.25,545.279785C601.5625,545.034241,601,544.099426,601,543.202393C601,541.717896,601.151855,541.723267,602.690491,543.261902C604.498352,545.069763,604.293213,546.00946,602.25,545.279785z"/>
    <path transform="matrix(0.047417,0,0,-0.047417,-8.042107,9.801712)" style="stroke:#c08000;stroke-width:1.054464mm;fill:none" d="M532,533L532,525L537,525C539.75,525,542,525.450012,542,526C542,526.549988,540.424988,527,538.5,527L535,527L535,534C535,539.555542,534.690491,541,533.5,541C532.291687,541,532,539.444458,532,533z"/>
    <path transform="matrix(0.047417,0,0,-0.047417,-8.042107,9.801712)" style="stroke:#c08000;stroke-width:1.054464mm;fill:none" d="M548.319946,539.25C547.980469,538.287476,546.644592,534.8349,545.351379,531.577576C542.580566,524.598755,542.639648,525,544.383362,525C545.144226,525,545.9729,525.788391,546.224915,526.752014C546.824158,529.043518,552.814087,528.974731,554.508911,526.656921C557.478271,522.596069,557.5495,525.664734,554.655945,532.993835C551.574707,540.798401,549.565796,542.782043,548.319946,539.25z"/>
    <path transform="matrix(0.047417,0,0,-0.047417,-8.042107,9.801712)" style="stroke:#c08000;stroke-width:1.054464mm;fill:none" d="M550.826782,531.169189C548.039612,530.707825,547.735657,531.325745,549.18512,534.506897L550.445068,537.272278L551.635193,534.386169C552.703613,531.794983,552.620972,531.466187,550.826782,531.169189z"/>
    <path transform="matrix(0.047417,0,0,-0.047417,-8.042107,9.801712)" style="stroke:#c08000;stroke-width:1.054464mm;fill:none" d="M567.072571,538.365112C561.616333,531.42865,567.521851,521.966675,575.430603,524.973633C579.349792,526.463684,578.496033,527.901123,573.817505,527.689331C570.204956,527.525818,569.421509,527.874695,568.067505,530.25C566.644165,532.747131,566.644165,533.252869,568.067505,535.75C569.421509,538.125305,570.204956,538.474182,573.817505,538.310669C577.997437,538.12146,579.403687,539.247375,576.418213,540.393005C572.814697,541.775818,569.125793,540.975403,567.072571,538.365112z"/>
    <path transform="matrix(0.047417,0,0,-0.047417,-8.042107,9.801712)" style="stroke:#c08000;stroke-width:1.054464mm;fill:none" d="M581,533C581,528.333313,581.416687,525,582,525C582.549988,525,583,526.349976,583,528C583,530.492554,583.402344,531,585.378662,531C587.078857,531,588.111816,530.144287,589,528C589.683472,526.349976,590.863037,525,591.621338,525C593.413696,525,593.363342,526.036255,591.437256,528.786133C590.020203,530.809265,590.020203,531.163086,591.437256,532.580078C595.316345,536.459229,592.075989,541,585.428589,541L581,541L581,533z"/>
    <path transform="matrix(0.047417,0,0,-0.047417,-8.042107,9.801712)" style="stroke:#c08000;stroke-width:1.054464mm;fill:none" d="M590,537.5C591.674133,535.482788,589.658203,533,586.346191,533C585.02124,533,583.678223,533.674988,583.361633,534.5C582.418884,536.956665,583.774109,539,586.346191,539C587.671082,539,589.315308,538.325012,590,537.5z"/>
    <path transform="matrix(0.047417,0,0,-0.047417,-8.042107,9.801712)" style="stroke:#c08000;stroke-width:1.054464mm;fill:none" d="M596,533L596,525L601.5,525C604.525024,525,607,525.450012,607,526C607,526.549988,605.200012,527,603,527C599.400024,527,599,527.25,599,529.5C599,531.690491,599.43335,532,602.5,532C604.424988,532,606,532.450012,606,533C606,533.549988,604.424988,534,602.5,534C599.43335,534,599,534.309509,599,536.5C599,538.75,599.400024,539,603,539C605.200012,539,607,539.450012,607,540C607,540.549988,604.525024,541,601.5,541L596,541L596,533z"/>
    <path transform="matrix(0.047417,0,0,-0.047417,-8.042107,9.801712)" style="stroke:#c08000;stroke-width:1.054464mm;fill:none" d="M613.980225,538.963074C611.965332,535.198242,608.970398,525.695251,609.60675,525.085938C609.943298,524.763672,610.899292,525.512512,611.731262,526.75C612.688049,528.173157,614.256714,529,616,529C617.743286,529,619.311951,528.173157,620.268738,526.75C623.190002,522.404724,623.231934,526.002625,620.343262,533.143555C617.167725,540.993408,615.757202,542.283386,613.980225,538.963074z"/>
    <path transform="matrix(0.047417,0,0,-0.047417,-8.042107,9.801712)" style="stroke:#c08000;stroke-width:1.054464mm;fill:none" d="M617.455017,533.25C618.032471,531.338684,617.761414,531,615.654236,531C613.315735,531,613.23822,531.170959,614.300842,533.986023C615.491638,537.14093,616.339233,536.943115,617.455017,533.25z"/>
    <path transform="matrix(0.047417,0,0,-0.047417,-8.042107,9.801712)" style="stroke:#c08000;stroke-width:1.054464mm;fill:none" d="M622,540C622,539.450012,623.349976,539,625,539L628,539L628,532C628,528,628.428589,525,629,525C629.571411,525,630,528,630,532C630,538.799988,630.071411,539,632.5,539C633.875,539,635,539.450012,635,540C635,540.564087,632.166687,541,628.5,541C624.833313,541,622,540.564087,622,540z"/>
    <path transform="matrix(0.047417,0,0,-0.047417,-8.042107,9.801712)" style="stroke:#c08000;stroke-width:1.054464mm;fill:none" d="M637.826172,533.002319C638.005554,528.601074,638.568054,525,639.076172,525C639.58429,525,640,528.599976,640,533C640,538.732056,639.64563,541.000671,638.75,541.002319C637.826843,541.004089,637.585266,538.912415,637.826172,533.002319z"/>
    <path transform="matrix(0.047417,0,0,-0.047417,-8.042107,9.801712)" style="stroke:#c08000;stroke-width:1.054464mm;fill:none" d="M645.072571,538.365112C640.61969,532.704163,643.770691,525,650.53894,525C655.301025,525,658,527.893921,658,533C658,538.090881,655.299133,541,650.572571,541C648.060974,541,646.59137,540.295959,645.072571,538.365112z"/>
    <path transform="matrix(0.047417,0,0,-0.047417,-8.042107,9.801712)" style="stroke:#c08000;stroke-width:1.054464mm;fill:none" d="M654.968445,535.75C656.343872,533.280396,656.343872,532.719604,654.968445,530.25C652.854797,526.454712,648.680298,526.032166,646.479675,529.390686C644.818481,531.925964,645.123108,535.100037,647.286804,537.800537C648.992493,539.929443,653.277954,538.785461,654.968445,535.75z"/>
    <path transform="matrix(0.047417,0,0,-0.047417,-8.042107,9.801712)" style="stroke:#c08000;stroke-width:1.054464mm;fill:none" d="M661.666687,540.333313C660.833191,539.499817,660.786377,528.720276,661.606995,526.581787C662.822083,523.415344,663.906982,525.128357,664.200073,530.676025L664.5,536.352051L668.260193,530.676025C673.624817,522.578186,675,523.052368,675,533C675,539.322083,674.695862,541,673.549927,541C672.488647,541,672.019409,539.477966,671.799927,535.323975L671.5,529.647949L667.739807,535.323975C664.077942,540.851501,663.040527,541.707214,661.666687,540.333313z"/>
    <path transform="matrix(0.047417,0,0,-0.047417,-8.042107,9.801712)" style="stroke:#c08000;stroke-width:1.054464mm;fill:none" d="M512.380005,536.547913C511.68338,534.732544,512.69519,533,514.452026,533C515.981689,533,516.909546,534.914673,516.269348,536.75C515.671814,538.462952,513.062866,538.327393,512.380005,536.547913z"/>
    <path transform="matrix(0.047417,0,0,-0.047417,-8.042107,9.801712)" style="stroke:#a0a000;stroke-width:1.054464mm;fill:none" d="M456.717499,528.971985C452.464996,527.89917,447,525.278564,447,524.312195C447,523.962158,447.736206,521.34021,448.636047,518.485657L450.272095,513.295532L455.146759,515.147766C464.476746,518.692871,472.795013,516.895386,474.891571,510.881165C475.501221,509.132385,476,507.496857,476,507.246704C476,506.996521,472.512512,507.095764,468.25,507.467255C450.867889,508.982086,441.714294,503.085236,441.714294,490.372589C441.714294,478.228912,452.724548,470.743042,465.235962,474.380219C468.212555,475.245544,471.471924,476.863983,472.478973,477.976776C474.919861,480.67392,476,480.527649,476,477.5C476,475.071442,476.200012,475,483,475L490,475L490,494.434906C490,505.735321,489.55481,515.048035,488.936371,516.684875C487.49176,520.508423,483.300201,524.771729,478.619293,527.178589C474.125549,529.489197,462.531067,530.438599,456.717499,528.971985z"/>
    <path transform="matrix(0.047417,0,0,-0.047417,-8.042107,9.801712)" style="stroke:#a0a000;stroke-width:1.054464mm;fill:none" d="M472.314026,498.347748L476.128082,497.717529L475.49176,493.608765C474.74585,488.792297,471.458374,485.364227,466.735657,484.478241C459.876831,483.191498,454.574921,488.045624,456.587738,493.769043C458.205536,498.369202,463.266663,499.842743,472.314026,498.347748z"/>
    <path transform="matrix(0.047417,0,0,-0.047417,-8.042107,9.801712)" style="stroke:#a0a000;stroke-width:1.054464mm;fill:none" d="M327.163513,507.79361C327.487213,487.308502,327.593475,486.336761,329.961914,482.200592C335.860504,471.899445,348.76709,470.277588,358.056671,478.670166L362,482.232727L362,478.116364L362,474L369.5,474L377,474L377,501.543823L377,529.087646L369.75,528.793823L362.5,528.5L362,510.660706L361.5,492.821411L358.694244,490.410706C354.623871,486.913452,348.942383,486.842499,345.271973,490.243103C343.147858,492.21109,343.03125,493.151428,342.771973,510.403687L342.5,528.5L334.663513,528.79364L326.826996,529.087219L327.163513,507.79361z"/>
    <path transform="matrix(0.047417,0,0,-0.047417,-8.042107,9.801712)" style="stroke:#c08000;stroke-width:1.054464mm;fill:none" d="M512.555786,528.090271C511.72052,526.73877,513.0224,524,514.5,524C515.9776,524,517.27948,526.73877,516.444214,528.090271C516.13501,528.590637,515.260071,529,514.5,529C513.739929,529,512.86499,528.590637,512.555786,528.090271z"/>
    <path transform="matrix(0.047417,0,0,-0.047417,-8.042107,9.801712)" style="stroke:#c08000;stroke-width:1.054464mm;fill:none" d="M512.440674,518.904053C512.068176,518.30127,512.417725,517.153687,513.21759,516.353821C514.489868,515.081543,514.828186,515.088074,515.921997,516.406006C516.609619,517.234497,516.881897,518.38208,516.5271,518.956177C515.681885,520.323792,513.299316,520.293335,512.440674,518.904053z"/>
    <path transform="matrix(0.047417,0,0,-0.047417,-8.042107,9.801712)" style="stroke:#c08000;stroke-width:1.054464mm;fill:none" d="M532,506.468628C532,496.813599,533.749695,494.868408,534.202271,504.020264L534.5,510.040558L538.5,504.047852C543.970398,495.852203,545,496.152069,545,505.940979C545,515.507141,543.226929,517.792908,542.798462,508.779053L542.5,502.5L538.5,508.228851C532.628479,516.638123,532,516.467896,532,506.468628z"/>
    <path transform="matrix(0.047417,0,0,-0.047417,-8.042107,9.801712)" style="stroke:#c08000;stroke-width:1.054464mm;fill:none" d="M548,512.440979C548,510.989624,548.432861,510.149475,549,510.5C549.549988,510.839905,550,511.991486,550,513.059021C550,514.126587,549.549988,515,549,515C548.450012,515,548,513.84845,548,512.440979z"/>
    <path transform="matrix(0.047417,0,0,-0.047417,-8.042107,9.801712)" style="stroke:#c08000;stroke-width:1.054464mm;fill:none" d="M554.138367,506.889801C550.984009,498.831299,550.786682,495.370087,553.731262,499.75C555.772278,502.785919,561.936829,502.95755,562.710266,500C563.190857,498.162048,566.09082,497.03598,565.929321,498.75C565.7323,500.841217,559.351807,514.384521,558.417236,514.69519C557.821716,514.893188,555.89624,511.380768,554.138367,506.889801z"/>
    <path transform="matrix(0.047417,0,0,-0.047417,-8.042107,9.801712)" style="stroke:#c08000;stroke-width:1.054464mm;fill:none" d="M561,504.385193C561,504.17334,559.875,504,558.5,504C555.697876,504,555.475281,504.754303,557.176025,508.486969L558.352051,511.068054L559.676025,507.91922C560.404236,506.187347,561,504.597046,561,504.385193z"/>
    <path transform="matrix(0.047417,0,0,-0.047417,-8.042107,9.801712)" style="stroke:#c08000;stroke-width:1.054464mm;fill:none" d="M574.666687,514.333313C574.299988,513.966675,574,510.141663,574,505.833344L574,498L578.545471,498C582.038147,498,583.659424,498.568481,585.545471,500.454559C588.142639,503.051697,588.789368,507.656494,587.021118,510.960571C585.481323,513.837708,576.596558,516.263245,574.666687,514.333313z"/>
    <path transform="matrix(0.047417,0,0,-0.047417,-8.042107,9.801712)" style="stroke:#c08000;stroke-width:1.054464mm;fill:none" d="M583.799988,510.799988C585.511597,509.088379,585.283752,503.426605,583.428589,501.571442C582.56427,500.707153,580.764282,500,579.428589,500C577.127014,500,577,500.313721,577,506C577,511.904755,577.044434,512,579.799988,512C581.340027,512,583.140015,511.459991,583.799988,510.799988z"/>
    <path transform="matrix(0.047417,0,0,-0.047417,-8.042107,9.801712)" style="stroke:#c08000;stroke-width:1.054464mm;fill:none" d="M591.712769,514.379456C591.32074,513.987427,591,510.141663,591,505.833344L591,498L596.5,498C599.525024,498,602,498.450012,602,499C602,499.549988,600.200012,500,598,500C594.427734,500,594,500.260559,594,502.436646C594,504.44104,594.562866,504.928864,597.172974,505.186646C601.757324,505.639374,602.101624,508,597.583313,508C594.703857,508,594,508.380981,594,509.939636C594,511.459137,594.812256,511.946503,597.75,512.189636C599.8125,512.360352,601.5,512.950012,601.5,513.5C601.5,514.658691,592.77594,515.442627,591.712769,514.379456z"/>
    <path transform="matrix(0.047417,0,0,-0.047417,-8.042107,9.801712)" style="stroke:#c08000;stroke-width:1.054464mm;fill:none" d="M611,506.5L611,498L616,498C618.75,498,621,498.450012,621,499C621,499.549988,619.200012,500,617,500L613,500L613,507.5C613,511.833344,612.577759,515,612,515C611.411743,515,611,511.5,611,506.5z"/>
    <path transform="matrix(0.047417,0,0,-0.047417,-8.042107,9.801712)" style="stroke:#c08000;stroke-width:1.054464mm;fill:none" d="M623.443787,513.714172C622.408813,511.016968,623.450989,498.675598,624.75,498.246368C625.680481,497.938904,626,499.884583,626,505.857635C626,513.251587,624.745667,517.106812,623.443787,513.714172z"/>
    <path transform="matrix(0.047417,0,0,-0.047417,-8.042107,9.801712)" style="stroke:#c08000;stroke-width:1.054464mm;fill:none" d="M630,506.468628C630,501.489532,630.412048,498,631,498C631.549988,498,632.031799,500.587494,632.070618,503.75L632.141296,509.5L634.029602,505.25C635.068237,502.912506,636.377808,501,636.939819,501C637.501831,501,639.074341,503.137512,640.434265,505.75L642.90686,510.5L642.95343,504.25C642.979309,500.781036,643.444946,498,644,498C644.588989,498,645,501.527771,645,506.583344C645,516.550293,644.002075,517.110718,639.832458,509.485443L637.164917,504.607086L634.901428,509.266022C631.182861,516.919922,630,516.244812,630,506.468628z"/>
    <path transform="matrix(0.047417,0,0,-0.047417,-8.042107,9.801712)" style="stroke:#c08000;stroke-width:1.054464mm;fill:none" d="M649,506.5C649,499.611115,649.284302,498,650.5,498C651.715698,498,652,499.611115,652,506.5C652,513.388916,651.715698,515,650.5,515C649.284302,515,649,513.388916,649,506.5z"/>
    <path transform="matrix(0.047417,0,0,-0.047417,-8.042107,9.801712)" style="stroke:#c08000;stroke-width:1.054464mm;fill:none" d="M654.25,513.75C654.479187,513.0625,655.529175,512.5,656.583313,512.5C658.239441,512.5,658.567993,511.559113,659,505.578644C659.308167,501.312775,659.979553,498.499237,660.75,498.245331C661.676331,497.940002,662,499.796936,662,505.416656C662,512.885498,662.038635,513,664.559021,513C666.010376,513,666.850525,513.432861,666.5,514C665.548584,515.539368,653.733887,515.298279,654.25,513.75z"/>
    <path transform="matrix(0.047417,0,0,-0.047417,-8.042107,9.801712)" style="stroke:#c08000;stroke-width:1.054464mm;fill:none" d="M670,506.554779L670,498L675,498C677.75,498,680,498.450012,680,499C680,499.549988,678.200012,500,676,500C672.400024,500,672,500.25,672,502.5C672,504.690491,672.43335,505,675.5,505C677.944458,505,679,505.452393,679,506.5C679,507.547607,677.944458,508,675.5,508C672.666687,508,672,508.380951,672,510C672,511.673462,672.666687,512,676.083313,512C681.889282,512,680.674866,514.413147,674.671814,514.80481L670,515.109558L670,506.554779z"/>
    <path transform="matrix(0.047417,0,0,-0.047417,-8.042107,9.801712)" style="stroke:#c08000;stroke-width:1.054464mm;fill:none" d="M691.711609,512.987793C685.915588,508.42865,687.387573,501.357483,694.928162,497.536407C700.636047,494.643982,703,494.340454,703,496.5C703,497.325012,702.255249,498,701.345032,498C699.877869,498,699.903687,498.236084,701.572266,500.079865C704.557983,503.379059,704.106995,509.651062,700.671509,512.60614C697.275574,515.527222,695.059937,515.621582,691.711609,512.987793z"/>
    <path transform="matrix(0.047417,0,0,-0.047417,-8.042107,9.801712)" style="stroke:#c08000;stroke-width:1.054464mm;fill:none" d="M700.424988,508.75C701.840576,504.699493,700.121155,500.576843,696.8573,500.195709C692.036255,499.632751,689.388367,505.120148,692.066467,510.124146C693.727905,513.228699,699.172546,512.333557,700.424988,508.75z"/>
    <path transform="matrix(0.047417,0,0,-0.047417,-8.042107,9.801712)" style="stroke:#c08000;stroke-width:1.054464mm;fill:none" d="M706.629456,511.084106C705.949219,506.830292,706.725403,501.207977,708.263184,499.25C709.743225,497.365509,715.44458,497.728821,717.345032,499.828735C719.211426,501.891113,719.777405,515,718,515C717.450012,515,717,512.495422,717,509.434265C717,503.112366,715.734802,500,713.164795,500C710.126892,500,709,502.202759,709,508.140991C709,514.856934,707.525452,516.687622,706.629456,511.084106z"/>
    <path transform="matrix(0.047417,0,0,-0.047417,-8.042107,9.801712)" style="stroke:#c08000;stroke-width:1.054464mm;fill:none" d="M723,506.5L723,498L728.5,498C731.525024,498,734,498.450012,734,499C734,499.549988,732.200012,500,730,500C726.222229,500,726,500.166656,726,503C726,505.761902,726.277771,506,729.5,506C731.424988,506,733,506.450012,733,507C733,507.549988,731.424988,508,729.5,508C726.484375,508,726,508.328033,726,510.370361C726,512.448425,726.453979,512.731567,729.682007,512.666382C731.724182,512.625122,733.542725,513.128235,733.76532,513.796021C734.046265,514.638855,732.49176,515,728.583313,515L723,515L723,506.5z"/>
    <path transform="matrix(0.047417,0,0,-0.047417,-8.042107,9.801712)" style="stroke:#c08000;stroke-width:1.054464mm;fill:none" d="M513.078003,510.593994C511.668152,508.895203,512.417969,507,514.5,507C516.665222,507,517.384277,509.044312,515.78241,510.646149C514.510132,511.918457,514.171814,511.911926,513.078003,510.593994z"/>
    <path transform="matrix(0.047417,0,0,-0.047417,-8.042107,9.801712)" style="stroke:#c08000;stroke-width:1.054464mm;fill:none" d="M512.754272,501.75C512.075439,499.904053,512.974182,498,514.524292,498C516.340881,498,517.143616,499.462158,516.39624,501.40976C515.669617,503.303406,513.403381,503.515106,512.754272,501.75z"/>
    <path transform="matrix(0.047417,0,0,-0.047417,-8.042107,9.801712)" style="stroke:#c08000;stroke-width:1.054464mm;fill:none" d="M512.440674,492.904053C512.068176,492.30127,512.417725,491.153687,513.21759,490.353851C514.489868,489.081543,514.828186,489.088074,515.921997,490.406006C516.609619,491.234528,516.881897,492.382111,516.5271,492.956207C515.681885,494.323761,513.299316,494.293365,512.440674,492.904053z"/>
    <path transform="matrix(0.047417,0,0,-0.047417,-8.042107,9.801712)" style="stroke:#c08000;stroke-width:1.054464mm;fill:none" d="M532,479.5L532,471L537,471C539.75,471,542,471.450012,542,472C542,472.549988,540.486145,473,538.635925,473C535.391907,473,535.249146,473.165588,534.635925,477.639557C534.286194,480.191345,534,483.566345,534,485.139557C534,486.712799,533.549988,488,533,488C532.411743,488,532,484.5,532,479.5z"/>
    <path transform="matrix(0.047417,0,0,-0.047417,-8.042107,9.801712)" style="stroke:#c08000;stroke-width:1.054464mm;fill:none" d="M543.666687,487.333344C542.619812,486.286469,542.887695,482,544,482C544.549988,482,545,483.350006,545,485C545,488.106873,544.796448,488.463104,543.666687,487.333344z"/>
    <path transform="matrix(0.047417,0,0,-0.047417,-8.042107,9.801712)" style="stroke:#c08000;stroke-width:1.054464mm;fill:none" d="M549,479.5C549,474.5,549.411743,471,550,471C550.588257,471,551,474.5,551,479.5C551,484.5,550.588257,488,550,488C549.411743,488,549,484.5,549,479.5z"/>
    <path transform="matrix(0.047417,0,0,-0.047417,-8.042107,9.801712)" style="stroke:#c08000;stroke-width:1.054464mm;fill:none" d="M555,479.5C555,474.5,555.411743,471,556,471C556.549988,471,557,473.475006,557,476.5C557,479.524994,557.381653,482,557.848145,482C558.314575,482,559.513733,480.187195,560.512817,477.971558C561.511963,475.75592,562.767517,474.089172,563.302979,474.26767C563.838501,474.446167,565.089233,476.596466,566.082458,479.046112L567.888245,483.5L567.944153,477.25C567.98761,472.385956,568.332642,471,569.5,471C570.715698,471,571,472.611115,571,479.5C571,486.928925,570.77948,487.999878,569.25,487.999054C568.078613,487.998413,566.798157,486.273193,565.377258,482.781158L563.254517,477.56424L560.610413,482.782104C556.579712,490.736298,555,489.812164,555,479.5z"/>
    <path transform="matrix(0.047417,0,0,-0.047417,-8.042107,9.801712)" style="stroke:#c08000;stroke-width:1.054464mm;fill:none" d="M576.29718,479.545807C574.182983,473.500214,573.682617,471,574.586914,471C575.289978,471,576.150879,471.899994,576.5,473C577.428711,475.926086,583.244934,475.760254,585.268738,472.75C588.195313,468.396851,588.182129,471.965515,585.243042,479.690491C583.590881,484.032928,581.608948,487.631317,580.778809,487.795807C579.71698,488.006195,578.422668,485.623596,576.29718,479.545807z"/>
    <path transform="matrix(0.047417,0,0,-0.047417,-8.042107,9.801712)" style="stroke:#c08000;stroke-width:1.054464mm;fill:none" d="M582.455017,480.25C583.032471,478.338684,582.761414,478,580.654236,478C578.315735,478,578.23822,478.170929,579.300842,480.986023C580.491638,484.1409,581.339233,483.943146,582.455017,480.25z"/>
    <path transform="matrix(0.047417,0,0,-0.047417,-8.042107,9.801712)" style="stroke:#c08000;stroke-width:1.054464mm;fill:none" d="M592.328491,485.60614C590.141663,483.725067,589.545471,482.349762,589.545471,479.186005C589.545471,473.213928,592.112244,470.845978,598.190002,471.21109L602.999634,471.5L602.999817,475.75C603,479.61673,602.774536,480,600.5,480C599.125,480,598,479.549988,598,479C598,478.450012,598.706299,478,599.56958,478C602.200562,478,600.911316,473.558258,598.167542,473.169647C594.847473,472.699402,592,475.66745,592,479.598297C592,483.994232,595.134094,486.252563,599.976501,485.345947C603.175232,484.747101,603.373474,484.838989,602.127563,486.34314C600.152283,488.727753,595.555664,488.382019,592.328491,485.60614z"/>
    <path transform="matrix(0.047417,0,0,-0.047417,-8.042107,9.801712)" style="stroke:#c08000;stroke-width:1.054464mm;fill:none" d="M607,479.5C607,474.5,607.411743,471,608,471C608.588257,471,609,474.5,609,479.5C609,484.5,608.588257,488,608,488C607.411743,488,607,484.5,607,479.5z"/>
    <path transform="matrix(0.047417,0,0,-0.047417,-8.042107,9.801712)" style="stroke:#c08000;stroke-width:1.054464mm;fill:none" d="M613.666687,487.333344C613.299988,486.966675,613,483.141663,613,478.833344C613,472.65686,613.306702,471,614.450073,471C615.511353,471,615.980591,472.522034,616.200073,476.676025L616.5,482.35202L620.260193,476.676025C622.328308,473.554199,624.409607,471,624.885193,471C626.064819,471,627,476.140747,627,482.625C627,486.736115,626.647278,488,625.5,488C624.327637,488,623.998047,486.634857,623.990967,481.75L623.981873,475.5L619.861633,481.75C615.799927,487.911102,614.981812,488.648468,613.666687,487.333344z"/>
    <path transform="matrix(0.047417,0,0,-0.047417,-8.042107,9.801712)" style="stroke:#c08000;stroke-width:1.054464mm;fill:none" d="M632.017334,479.888702C628.929443,471.881531,628.788879,468.373291,631.731262,472.75C632.782043,474.312927,634.23822,475,636.5,475C638.76178,475,640.217957,474.312927,641.268738,472.75C644.2099,468.375183,644.017517,471.827301,640.872437,479.862244C639.120483,484.338013,637.115173,488,636.416199,488C635.717285,488,633.737732,484.349915,632.017334,479.888702z"/>
    <path transform="matrix(0.047417,0,0,-0.047417,-8.042107,9.801712)" style="stroke:#c08000;stroke-width:1.054464mm;fill:none" d="M636.60144,477.912903C633.716858,477.107025,633.624634,477.332703,635.06073,481.682983L636.320862,485.5L637.511841,482C638.607178,478.781128,638.534058,478.45285,636.60144,477.912903z"/>
    <path transform="matrix(0.047417,0,0,-0.047417,-8.042107,9.801712)" style="stroke:#c08000;stroke-width:1.054464mm;fill:none" d="M643,487C643,486.450012,644.068726,486,645.375,486C648.037415,486,649,483.178619,649,475.375C649,472.96875,649.450012,471,650,471C650.577759,471,651,474.166656,651,478.5C651,485.833344,651.055542,486,653.5,486C654.875,486,656,486.450012,656,487C656,487.564117,653.166687,488,649.5,488C645.833313,488,643,487.564117,643,487z"/>
    <path transform="matrix(0.047417,0,0,-0.047417,-8.042107,9.801712)" style="stroke:#c08000;stroke-width:1.054464mm;fill:none" d="M659,479.5C659,474.5,659.411743,471,660,471C660.588257,471,661,474.5,661,479.5C661,484.5,660.588257,488,660,488C659.411743,488,659,484.5,659,479.5z"/>
    <path transform="matrix(0.047417,0,0,-0.047417,-8.042107,9.801712)" style="stroke:#c08000;stroke-width:1.054464mm;fill:none" d="M667.025452,486.025421C664.292908,483.292938,663.543335,479.516724,665.023865,475.942383C668.493042,467.567047,680,470.192902,680,479.359894C680,486.54538,671.772278,490.772278,667.025452,486.025421z"/>
    <path transform="matrix(0.047417,0,0,-0.047417,-8.042107,9.801712)" style="stroke:#c08000;stroke-width:1.054464mm;fill:none" d="M675.427063,484.430084C679.208679,480.648468,678.108765,474.567383,673.430847,473.39328C670.066223,472.548828,667,475.377625,667,479.326233C667,484.849304,671.987305,487.869843,675.427063,484.430084z"/>
    <path transform="matrix(0.047417,0,0,-0.047417,-8.042107,9.801712)" style="stroke:#c08000;stroke-width:1.054464mm;fill:none" d="M683.666687,487.333344C683.299988,486.966675,683,483.141663,683,478.833344C683,472.65686,683.306702,471,684.450073,471C685.512146,471,685.980469,472.524841,686.200073,476.698212L686.5,482.396423L690.416199,476.698212C695.953613,468.641174,697,469.099731,697,479.583344C697,486.002533,696.684814,488.063049,695.75,487.755676C695.044861,487.523834,694.282043,484.981262,694,481.922363L693.5,476.5L689.5,482.238159C685.461914,488.030945,684.876038,488.542694,683.666687,487.333344z"/>
    <path transform="matrix(0.047417,0,0,-0.047417,-8.042107,9.801712)" style="stroke:#c08000;stroke-width:1.054464mm;fill:none" d="M512.4729,483.956207C512.118103,483.382111,512.376282,482.251556,513.04657,481.443878C514.539368,479.645172,517.183594,481.358063,516.333557,483.57312C515.694702,485.237946,513.405457,485.465088,512.4729,483.956207z"/>
    <path transform="matrix(0.047417,0,0,-0.047417,-8.042107,9.801712)" style="stroke:#c08000;stroke-width:1.054464mm;fill:none" d="M513.027222,475.532806C511.644867,473.867157,512.454407,472,514.559021,472C516.120178,472,516.562378,475.534393,515.113281,476.429962C514.62561,476.731384,513.68689,476.327637,513.027222,475.532806z"/>
    <path transform="matrix(0.047417,0,0,-0.047417,-8.042107,9.801712)" style="stroke:#c08000;stroke-width:1.054464mm;fill:none" d="M513.04657,466.556122C511.676941,464.905823,512.430176,463,514.452026,463C516.36261,463,517.118713,465.656586,515.573242,466.939209C514.611572,467.737335,513.942749,467.635925,513.04657,466.556122z"/>
    <path transform="matrix(0.047417,0,0,-0.047417,-8.042107,9.801712)" style="stroke:#c08000;stroke-width:1.054464mm;fill:none" d="M512.335815,457.43277C511.50238,455.260834,513.618286,453.218262,515.132813,454.732788C516.412842,456.012817,515.619812,459,514,459C513.415466,459,512.666626,458.294739,512.335815,457.43277z"/>
    <path transform="matrix(0.047417,0,0,-0.047417,-8.042107,9.801712)" style="stroke:#a0a000;stroke-width:1.054464mm;fill:none" d="M439.666656,452.333344C439.299988,451.966675,439,448.141663,439,443.833344L439,436L448.5,436L458,436L458,444.5L458,453L449.166656,453C444.308319,453,440.033325,452.700012,439.666656,452.333344z"/>
    <path transform="matrix(0.047417,0,0,-0.047417,-8.042107,9.801712)" style="stroke:#a0a000;stroke-width:1.054464mm;fill:none" d="M624.75,452.293243L621,451.879272L621,406.939636L621,362L630.010193,362L639.020386,362L638.760193,407.25L638.5,452.5L633.5,452.603607C630.75,452.660614,626.8125,452.520935,624.75,452.293243z"/>
    <path transform="matrix(0.047417,0,0,-0.047417,-8.042107,9.801712)" style="stroke:#c08000;stroke-width:1.054464mm;fill:none" d="M512.322876,448.399078C511.691589,446.753876,513.777344,444.744354,515.202271,445.625C515.640991,445.896179,516,446.991486,516,448.059021C516,450.398804,513.190002,450.658691,512.322876,448.399078z"/>
    <path transform="matrix(0.047417,0,0,-0.047417,-8.042107,9.801712)" style="stroke:#a0a000;stroke-width:1.054464mm;fill:none" d="M306.75,448.42807C306.337494,448.009308,306,428.36441,306,404.772797L306,361.878937L332.25,362.189453C358.285492,362.497467,358.546417,362.521759,364.180664,365.162933C374.094818,369.810394,379.229126,380.170319,376.930389,390.889008C375.691895,396.66394,370.612335,403.113861,365.790161,405.034637C363.98056,405.755432,362.330994,406.47403,362.12442,406.6315C361.917877,406.788971,363.17511,408.117889,364.918274,409.584686C371.157776,414.834869,374.100006,424.162109,372.00238,432.042023C370.282471,438.502899,366.525757,442.863861,360.106964,445.850677C354.654327,448.387939,353.853149,448.469818,331,448.824615C318.075012,449.025269,307.162506,448.846832,306.75,448.42807z"/>
    <path transform="matrix(0.047417,0,0,-0.047417,-8.042107,9.801712)" style="stroke:#a0a000;stroke-width:1.054464mm;fill:none" d="M349.694275,430.464661C354.696259,427.187225,355.003174,419.720856,350.288361,416.012177C348.051575,414.252716,346.240051,414,335.865143,414L324,414L324,422.93045C324,433.498413,323.399261,433.087067,337.899628,432.44812C344.157166,432.172394,348.099884,431.509338,349.694275,430.464661z"/>
    <path transform="matrix(0.047417,0,0,-0.047417,-8.042107,9.801712)" style="stroke:#a0a000;stroke-width:1.054464mm;fill:none" d="M356.588989,394.694244C358.965027,391.929169,359.740173,387.092407,358.376678,383.539185C358.033844,382.645782,356.026764,381.033966,353.916504,379.957397C350.688171,378.310425,348.011658,378,337.039825,378L324,378L324,388.072052L324,398.144104L339.088989,397.822052L354.177948,397.5L356.588989,394.694244z"/>
    <path transform="matrix(0.047417,0,0,-0.047417,-8.042107,9.801712)" style="stroke:#c08000;stroke-width:1.054464mm;fill:none" d="M512,439.106995C512,437.207489,514.282898,435.616272,515.402222,436.735565C516.837097,438.170471,515.906738,441,514,441C512.704346,441,512,440.333344,512,439.106995z"/>
    <path transform="matrix(0.047417,0,0,-0.047417,-8.042107,9.801712)" style="stroke:#a0a000;stroke-width:1.054464mm;fill:none" d="M512.321594,430.395691C511.847076,429.159119,510.853241,428.927765,507.985748,429.386292C505.939606,429.71347,501.618256,429.49646,498.382751,428.904022C486.861572,426.794403,478.176086,419.974365,473.187317,409.120026C469.44989,400.988251,469.434967,388.861237,473.152588,380.879974C474.592346,377.788971,477.437256,373.414886,479.474609,371.15976C492.275116,356.99115,519.243591,357.894043,529.891602,372.847748L532.046021,375.873352L524.970215,380.450653L517.894409,385.027954L515.373535,382.032043C508.604279,373.987274,494.576477,376.589355,490.364014,386.671204C487.032013,394.645782,489.670074,406.509766,495.727356,410.791443C501.916931,415.166626,510.850769,414.342957,515.362427,408.98111C516.742065,407.341492,518.123657,406,518.432617,406C519.922546,406,531.459045,415.388824,531.177979,416.372681C530.524292,418.661346,525.367004,423.254364,520.879395,425.544525C518.309692,426.855896,516.020935,428.811951,515.722961,429.951294C515.083984,432.394806,513.18396,432.643036,512.321594,430.395691z"/>
    <path transform="matrix(0.047417,0,0,-0.047417,-8.042107,9.801712)" style="stroke:#a0a000;stroke-width:1.054464mm;fill:none" d="M561.908936,428.168854C546.515381,423.064148,537.843811,411.221619,537.621338,395C537.535156,388.717041,537.964905,386.58786,540.269775,381.878845C544.173401,373.903259,550.114319,367.582153,556.785583,364.306152C561.945557,361.772278,563.518799,361.5,573,361.5C582.449158,361.5,584.064636,361.777283,589.141479,364.270477C595.724121,367.503082,602.279175,374.202637,605.338379,380.824341C608.422302,387.499603,608.371338,402.41922,605.241272,409.258942C598.013428,425.052887,578.366821,433.626526,561.908936,428.168854z"/>
    <path transform="matrix(0.047417,0,0,-0.047417,-8.042107,9.801712)" style="stroke:#a0a000;stroke-width:1.054464mm;fill:none" d="M582.470337,410.590393C589.141785,405.501862,591.581421,393.709778,587.616577,385.715881C585.154785,380.752411,578.817444,377,572.896545,377C566.350281,377,561.998962,379.784851,558.654968,386.114685C556.268311,390.632507,555.89209,392.325134,556.31958,396.622406C557.459534,408.081757,564.45752,414.664612,574.361084,413.593597C577.358337,413.26947,580.46759,412.117981,582.470337,410.590393z"/>
    <path transform="matrix(0.047417,0,0,-0.047417,-8.042107,9.801712)" style="stroke:#a0a000;stroke-width:1.054464mm;fill:none" d="M675.324158,428.61969C665.707397,425.47641,657.513,417.631866,653.938477,408.147095C652.189392,403.505951,651.879822,400.89679,652.200439,393.5C652.543152,385.594055,653.002014,383.731018,655.975098,378.173981C662.268066,366.411987,671.729675,361,686,361C695.940247,361,702.739136,363.402313,709.408691,369.27124L714.307922,373.582306L708.745056,378.334778L703.182251,383.08725L698.601074,379.858154C689.856445,373.694366,677.254883,375.21991,672.659912,382.998535C669.054565,389.101898,668.689941,389,694.138733,389L717.277405,389L716.771667,397.869659C715.949646,412.287048,709.79248,422.533905,699.089417,427.296875C693.320984,429.863861,681.195679,430.538788,675.324158,428.61969z"/>
    <path transform="matrix(0.047417,0,0,-0.047417,-8.042107,9.801712)" style="stroke:#a0a000;stroke-width:1.054464mm;fill:none" d="M691.642944,413.365143C695.121094,411.714661,697.170349,408.789368,698.378723,403.75L699.038086,401L685.019043,401C671.553467,401,671,401.080902,671,403.049652C671,411.983887,682.472473,417.716827,691.642944,413.365143z"/>
    <path transform="matrix(0.047417,0,0,-0.047417,-8.042107,9.801712)" style="stroke:#a0a000;stroke-width:1.054464mm;fill:none" d="M418.5,427.486725C416.850006,426.661224,413.587494,423.8638,411.25,421.270294L407,416.554779L407,422.277374L407,428L398,428L389,428L389,395L389,362L397.886566,362L406.773163,362L407.149506,379.257629C407.514679,396.001892,407.608582,396.656342,410.306061,401.259308C413.552521,406.79895,418.919189,410,424.960175,410L429,410L429,419.5L429,429L425.25,428.993835C423.1875,428.990448,420.149994,428.312256,418.5,427.486725z"/>
    <path transform="matrix(0.047417,0,0,-0.047417,-8.042107,9.801712)" style="stroke:#a0a000;stroke-width:1.054464mm;fill:none" d="M440,394.601257L440,361.202484L448.75,361.351257L457.5,361.5L457.763489,394.75L458.026947,428L449.013489,428L440,428L440,394.601257z"/>
</svg>
